<?xml version="1.0" encoding="UTF-8" standalone="no"?>
<!DOCTYPE svg PUBLIC "-//W3C//DTD SVG 1.1//EN"
 "http://www.w3.org/Graphics/SVG/1.1/DTD/svg11.dtd">
<!-- Generated by graphviz version 2.38.0 (20140413.2041)
 -->
<!-- Title: Tree Pages: 1 -->
<svg width="895pt" height="622pt"
 viewBox="0.00 0.00 894.81 622.40" xmlns="http://www.w3.org/2000/svg" xmlns:xlink="http://www.w3.org/1999/xlink">
<g id="graph0" class="graph" transform="scale(1 1) rotate(0) translate(4 618.4)">
<title>Tree</title>
<polygon fill="white" stroke="none" points="-4,4 -4,-618.4 890.806,-618.4 890.806,4 -4,4"/>
<!-- 0 -->
<g id="node1" class="node"><title>0</title>
<path fill="none" stroke="black" d="M537.468,-614.5C537.468,-614.5 390.259,-614.5 390.259,-614.5 384.259,-614.5 378.259,-608.5 378.259,-602.5 378.259,-602.5 378.259,-551.1 378.259,-551.1 378.259,-545.1 384.259,-539.1 390.259,-539.1 390.259,-539.1 537.468,-539.1 537.468,-539.1 543.468,-539.1 549.468,-545.1 549.468,-551.1 549.468,-551.1 549.468,-602.5 549.468,-602.5 549.468,-608.5 543.468,-614.5 537.468,-614.5"/>
<text text-anchor="middle" x="463.864" y="-597.8" font-family="Helvetica,sans-Serif" font-size="14.00">petal length (cm) &lt;= 2.45</text>
<text text-anchor="middle" x="463.864" y="-581" font-family="Helvetica,sans-Serif" font-size="14.00">samples = 147</text>
<text text-anchor="middle" x="463.864" y="-564.2" font-family="Helvetica,sans-Serif" font-size="14.00">value = [49, 49, 49]</text>
<text text-anchor="middle" x="463.864" y="-547.4" font-family="Helvetica,sans-Serif" font-size="14.00">class = setosa</text>
</g>
<!-- 1 -->
<g id="node2" class="node"><title>1</title>
<path fill="#e58139" stroke="black" d="M431.748,-495.001C431.748,-495.001 335.979,-495.001 335.979,-495.001 329.979,-495.001 323.979,-489.001 323.979,-483.001 323.979,-483.001 323.979,-448.199 323.979,-448.199 323.979,-442.199 329.979,-436.199 335.979,-436.199 335.979,-436.199 431.748,-436.199 431.748,-436.199 437.748,-436.199 443.748,-442.199 443.748,-448.199 443.748,-448.199 443.748,-483.001 443.748,-483.001 443.748,-489.001 437.748,-495.001 431.748,-495.001"/>
<text text-anchor="middle" x="383.864" y="-478.2" font-family="Helvetica,sans-Serif" font-size="14.00">samples = 49</text>
<text text-anchor="middle" x="383.864" y="-461.4" font-family="Helvetica,sans-Serif" font-size="14.00">value = [49, 0, 0]</text>
<text text-anchor="middle" x="383.864" y="-444.6" font-family="Helvetica,sans-Serif" font-size="14.00">class = setosa</text>
</g>
<!-- 0&#45;&gt;1 -->
<g id="edge1" class="edge"><title>0&#45;&gt;1</title>
<path fill="none" stroke="black" d="M437.002,-539.134C428.528,-527.567 419.169,-514.792 410.697,-503.227"/>
<polygon fill="black" stroke="black" points="413.443,-501.053 404.71,-495.055 407.796,-505.19 413.443,-501.053"/>
<text text-anchor="middle" x="400.896" y="-515.562" font-family="Helvetica,sans-Serif" font-size="14.00">True</text>
</g>
<!-- 2 -->
<g id="node3" class="node"><title>2</title>
<path fill="none" stroke="black" d="M616.009,-503.3C616.009,-503.3 473.718,-503.3 473.718,-503.3 467.718,-503.3 461.718,-497.3 461.718,-491.3 461.718,-491.3 461.718,-439.9 461.718,-439.9 461.718,-433.9 467.718,-427.9 473.718,-427.9 473.718,-427.9 616.009,-427.9 616.009,-427.9 622.009,-427.9 628.009,-433.9 628.009,-439.9 628.009,-439.9 628.009,-491.3 628.009,-491.3 628.009,-497.3 622.009,-503.3 616.009,-503.3"/>
<text text-anchor="middle" x="544.864" y="-486.6" font-family="Helvetica,sans-Serif" font-size="14.00">petal width (cm) &lt;= 1.75</text>
<text text-anchor="middle" x="544.864" y="-469.8" font-family="Helvetica,sans-Serif" font-size="14.00">samples = 98</text>
<text text-anchor="middle" x="544.864" y="-453" font-family="Helvetica,sans-Serif" font-size="14.00">value = [0, 49, 49]</text>
<text text-anchor="middle" x="544.864" y="-436.2" font-family="Helvetica,sans-Serif" font-size="14.00">class = versicolor</text>
</g>
<!-- 0&#45;&gt;2 -->
<g id="edge2" class="edge"><title>0&#45;&gt;2</title>
<path fill="none" stroke="black" d="M491.061,-539.134C497.606,-530.311 504.672,-520.784 511.463,-511.628"/>
<polygon fill="black" stroke="black" points="514.454,-513.472 517.6,-503.355 508.832,-509.301 514.454,-513.472"/>
<text text-anchor="middle" x="521.267" y="-523.885" font-family="Helvetica,sans-Serif" font-size="14.00">False</text>
</g>
<!-- 3 -->
<g id="node4" class="node"><title>3</title>
<path fill="#39e581" fill-opacity="0.894118" stroke="black" d="M501.468,-392.1C501.468,-392.1 354.259,-392.1 354.259,-392.1 348.259,-392.1 342.259,-386.1 342.259,-380.1 342.259,-380.1 342.259,-328.7 342.259,-328.7 342.259,-322.7 348.259,-316.7 354.259,-316.7 354.259,-316.7 501.468,-316.7 501.468,-316.7 507.468,-316.7 513.468,-322.7 513.468,-328.7 513.468,-328.7 513.468,-380.1 513.468,-380.1 513.468,-386.1 507.468,-392.1 501.468,-392.1"/>
<text text-anchor="middle" x="427.864" y="-375.4" font-family="Helvetica,sans-Serif" font-size="14.00">petal length (cm) &lt;= 4.95</text>
<text text-anchor="middle" x="427.864" y="-358.6" font-family="Helvetica,sans-Serif" font-size="14.00">samples = 53</text>
<text text-anchor="middle" x="427.864" y="-341.8" font-family="Helvetica,sans-Serif" font-size="14.00">value = [0, 48, 5]</text>
<text text-anchor="middle" x="427.864" y="-325" font-family="Helvetica,sans-Serif" font-size="14.00">class = versicolor</text>
</g>
<!-- 2&#45;&gt;3 -->
<g id="edge3" class="edge"><title>2&#45;&gt;3</title>
<path fill="none" stroke="black" d="M505.579,-427.934C495.643,-418.66 484.875,-408.61 474.61,-399.03"/>
<polygon fill="black" stroke="black" points="476.943,-396.419 467.244,-392.155 472.166,-401.537 476.943,-396.419"/>
</g>
<!-- 12 -->
<g id="node13" class="node"><title>12</title>
<path fill="#8139e5" fill-opacity="0.976471" stroke="black" d="M735.468,-392.1C735.468,-392.1 588.259,-392.1 588.259,-392.1 582.259,-392.1 576.259,-386.1 576.259,-380.1 576.259,-380.1 576.259,-328.7 576.259,-328.7 576.259,-322.7 582.259,-316.7 588.259,-316.7 588.259,-316.7 735.468,-316.7 735.468,-316.7 741.468,-316.7 747.468,-322.7 747.468,-328.7 747.468,-328.7 747.468,-380.1 747.468,-380.1 747.468,-386.1 741.468,-392.1 735.468,-392.1"/>
<text text-anchor="middle" x="661.864" y="-375.4" font-family="Helvetica,sans-Serif" font-size="14.00">petal length (cm) &lt;= 4.85</text>
<text text-anchor="middle" x="661.864" y="-358.6" font-family="Helvetica,sans-Serif" font-size="14.00">samples = 45</text>
<text text-anchor="middle" x="661.864" y="-341.8" font-family="Helvetica,sans-Serif" font-size="14.00">value = [0, 1, 44]</text>
<text text-anchor="middle" x="661.864" y="-325" font-family="Helvetica,sans-Serif" font-size="14.00">class = virginica</text>
</g>
<!-- 2&#45;&gt;12 -->
<g id="edge12" class="edge"><title>2&#45;&gt;12</title>
<path fill="none" stroke="black" d="M584.148,-427.934C594.085,-418.66 604.853,-408.61 615.117,-399.03"/>
<polygon fill="black" stroke="black" points="617.561,-401.537 622.483,-392.155 612.785,-396.419 617.561,-401.537"/>
</g>
<!-- 4 -->
<g id="node5" class="node"><title>4</title>
<path fill="#39e581" fill-opacity="0.976471" stroke="black" d="M270.009,-280.9C270.009,-280.9 127.718,-280.9 127.718,-280.9 121.718,-280.9 115.718,-274.9 115.718,-268.9 115.718,-268.9 115.718,-217.5 115.718,-217.5 115.718,-211.5 121.718,-205.5 127.718,-205.5 127.718,-205.5 270.009,-205.5 270.009,-205.5 276.009,-205.5 282.009,-211.5 282.009,-217.5 282.009,-217.5 282.009,-268.9 282.009,-268.9 282.009,-274.9 276.009,-280.9 270.009,-280.9"/>
<text text-anchor="middle" x="198.864" y="-264.2" font-family="Helvetica,sans-Serif" font-size="14.00">petal width (cm) &lt;= 1.65</text>
<text text-anchor="middle" x="198.864" y="-247.4" font-family="Helvetica,sans-Serif" font-size="14.00">samples = 47</text>
<text text-anchor="middle" x="198.864" y="-230.6" font-family="Helvetica,sans-Serif" font-size="14.00">value = [0, 46, 1]</text>
<text text-anchor="middle" x="198.864" y="-213.8" font-family="Helvetica,sans-Serif" font-size="14.00">class = versicolor</text>
</g>
<!-- 3&#45;&gt;4 -->
<g id="edge4" class="edge"><title>3&#45;&gt;4</title>
<path fill="none" stroke="black" d="M350.973,-316.734C329.826,-306.65 306.754,-295.648 285.117,-285.33"/>
<polygon fill="black" stroke="black" points="286.474,-282.1 275.941,-280.955 283.461,-288.418 286.474,-282.1"/>
</g>
<!-- 7 -->
<g id="node8" class="node"><title>7</title>
<path fill="#8139e5" fill-opacity="0.498039" stroke="black" d="M499.009,-280.9C499.009,-280.9 356.718,-280.9 356.718,-280.9 350.718,-280.9 344.718,-274.9 344.718,-268.9 344.718,-268.9 344.718,-217.5 344.718,-217.5 344.718,-211.5 350.718,-205.5 356.718,-205.5 356.718,-205.5 499.009,-205.5 499.009,-205.5 505.009,-205.5 511.009,-211.5 511.009,-217.5 511.009,-217.5 511.009,-268.9 511.009,-268.9 511.009,-274.9 505.009,-280.9 499.009,-280.9"/>
<text text-anchor="middle" x="427.864" y="-264.2" font-family="Helvetica,sans-Serif" font-size="14.00">petal width (cm) &lt;= 1.55</text>
<text text-anchor="middle" x="427.864" y="-247.4" font-family="Helvetica,sans-Serif" font-size="14.00">samples = 6</text>
<text text-anchor="middle" x="427.864" y="-230.6" font-family="Helvetica,sans-Serif" font-size="14.00">value = [0, 2, 4]</text>
<text text-anchor="middle" x="427.864" y="-213.8" font-family="Helvetica,sans-Serif" font-size="14.00">class = virginica</text>
</g>
<!-- 3&#45;&gt;7 -->
<g id="edge7" class="edge"><title>3&#45;&gt;7</title>
<path fill="none" stroke="black" d="M427.864,-316.734C427.864,-308.541 427.864,-299.741 427.864,-291.196"/>
<polygon fill="black" stroke="black" points="431.364,-290.955 427.864,-280.955 424.364,-290.955 431.364,-290.955"/>
</g>
<!-- 5 -->
<g id="node6" class="node"><title>5</title>
<path fill="#39e581" stroke="black" d="M111.591,-161.401C111.591,-161.401 12.1361,-161.401 12.1361,-161.401 6.1361,-161.401 0.1361,-155.401 0.1361,-149.401 0.1361,-149.401 0.1361,-114.599 0.1361,-114.599 0.1361,-108.599 6.1361,-102.599 12.1361,-102.599 12.1361,-102.599 111.591,-102.599 111.591,-102.599 117.591,-102.599 123.591,-108.599 123.591,-114.599 123.591,-114.599 123.591,-149.401 123.591,-149.401 123.591,-155.401 117.591,-161.401 111.591,-161.401"/>
<text text-anchor="middle" x="61.8636" y="-144.6" font-family="Helvetica,sans-Serif" font-size="14.00">samples = 46</text>
<text text-anchor="middle" x="61.8636" y="-127.8" font-family="Helvetica,sans-Serif" font-size="14.00">value = [0, 46, 0]</text>
<text text-anchor="middle" x="61.8636" y="-111" font-family="Helvetica,sans-Serif" font-size="14.00">class = versicolor</text>
</g>
<!-- 4&#45;&gt;5 -->
<g id="edge5" class="edge"><title>4&#45;&gt;5</title>
<path fill="none" stroke="black" d="M152.863,-205.534C137.647,-193.405 120.764,-179.948 105.713,-167.952"/>
<polygon fill="black" stroke="black" points="107.564,-164.951 97.5625,-161.455 103.201,-170.425 107.564,-164.951"/>
</g>
<!-- 6 -->
<g id="node7" class="node"><title>6</title>
<path fill="#8139e5" stroke="black" d="M244.537,-161.401C244.537,-161.401 153.19,-161.401 153.19,-161.401 147.19,-161.401 141.19,-155.401 141.19,-149.401 141.19,-149.401 141.19,-114.599 141.19,-114.599 141.19,-108.599 147.19,-102.599 153.19,-102.599 153.19,-102.599 244.537,-102.599 244.537,-102.599 250.537,-102.599 256.537,-108.599 256.537,-114.599 256.537,-114.599 256.537,-149.401 256.537,-149.401 256.537,-155.401 250.537,-161.401 244.537,-161.401"/>
<text text-anchor="middle" x="198.864" y="-144.6" font-family="Helvetica,sans-Serif" font-size="14.00">samples = 1</text>
<text text-anchor="middle" x="198.864" y="-127.8" font-family="Helvetica,sans-Serif" font-size="14.00">value = [0, 0, 1]</text>
<text text-anchor="middle" x="198.864" y="-111" font-family="Helvetica,sans-Serif" font-size="14.00">class = virginica</text>
</g>
<!-- 4&#45;&gt;6 -->
<g id="edge6" class="edge"><title>4&#45;&gt;6</title>
<path fill="none" stroke="black" d="M198.864,-205.534C198.864,-194.641 198.864,-182.676 198.864,-171.66"/>
<polygon fill="black" stroke="black" points="202.364,-171.455 198.864,-161.455 195.364,-171.455 202.364,-171.455"/>
</g>
<!-- 8 -->
<g id="node9" class="node"><title>8</title>
<path fill="#8139e5" stroke="black" d="M377.537,-161.401C377.537,-161.401 286.19,-161.401 286.19,-161.401 280.19,-161.401 274.19,-155.401 274.19,-149.401 274.19,-149.401 274.19,-114.599 274.19,-114.599 274.19,-108.599 280.19,-102.599 286.19,-102.599 286.19,-102.599 377.537,-102.599 377.537,-102.599 383.537,-102.599 389.537,-108.599 389.537,-114.599 389.537,-114.599 389.537,-149.401 389.537,-149.401 389.537,-155.401 383.537,-161.401 377.537,-161.401"/>
<text text-anchor="middle" x="331.864" y="-144.6" font-family="Helvetica,sans-Serif" font-size="14.00">samples = 3</text>
<text text-anchor="middle" x="331.864" y="-127.8" font-family="Helvetica,sans-Serif" font-size="14.00">value = [0, 0, 3]</text>
<text text-anchor="middle" x="331.864" y="-111" font-family="Helvetica,sans-Serif" font-size="14.00">class = virginica</text>
</g>
<!-- 7&#45;&gt;8 -->
<g id="edge8" class="edge"><title>7&#45;&gt;8</title>
<path fill="none" stroke="black" d="M395.63,-205.534C385.362,-193.855 374.012,-180.943 363.767,-169.291"/>
<polygon fill="black" stroke="black" points="366.11,-166.654 356.879,-161.455 360.853,-171.276 366.11,-166.654"/>
</g>
<!-- 9 -->
<g id="node10" class="node"><title>9</title>
<path fill="#39e581" fill-opacity="0.498039" stroke="black" d="M570.078,-169.7C570.078,-169.7 419.65,-169.7 419.65,-169.7 413.65,-169.7 407.65,-163.7 407.65,-157.7 407.65,-157.7 407.65,-106.3 407.65,-106.3 407.65,-100.3 413.65,-94.2997 419.65,-94.2997 419.65,-94.2997 570.078,-94.2997 570.078,-94.2997 576.078,-94.2997 582.078,-100.3 582.078,-106.3 582.078,-106.3 582.078,-157.7 582.078,-157.7 582.078,-163.7 576.078,-169.7 570.078,-169.7"/>
<text text-anchor="middle" x="494.864" y="-153" font-family="Helvetica,sans-Serif" font-size="14.00">sepal length (cm) &lt;= 6.95</text>
<text text-anchor="middle" x="494.864" y="-136.2" font-family="Helvetica,sans-Serif" font-size="14.00">samples = 3</text>
<text text-anchor="middle" x="494.864" y="-119.4" font-family="Helvetica,sans-Serif" font-size="14.00">value = [0, 2, 1]</text>
<text text-anchor="middle" x="494.864" y="-102.6" font-family="Helvetica,sans-Serif" font-size="14.00">class = versicolor</text>
</g>
<!-- 7&#45;&gt;9 -->
<g id="edge9" class="edge"><title>7&#45;&gt;9</title>
<path fill="none" stroke="black" d="M450.36,-205.534C455.718,-196.801 461.5,-187.378 467.064,-178.309"/>
<polygon fill="black" stroke="black" points="470.066,-180.109 472.313,-169.755 464.1,-176.448 470.066,-180.109"/>
</g>
<!-- 10 -->
<g id="node11" class="node"><title>10</title>
<path fill="#39e581" stroke="black" d="M475.591,-58.6014C475.591,-58.6014 376.136,-58.6014 376.136,-58.6014 370.136,-58.6014 364.136,-52.6014 364.136,-46.6014 364.136,-46.6014 364.136,-11.7986 364.136,-11.7986 364.136,-5.79862 370.136,0.201379 376.136,0.201379 376.136,0.201379 475.591,0.201379 475.591,0.201379 481.591,0.201379 487.591,-5.79862 487.591,-11.7986 487.591,-11.7986 487.591,-46.6014 487.591,-46.6014 487.591,-52.6014 481.591,-58.6014 475.591,-58.6014"/>
<text text-anchor="middle" x="425.864" y="-41.8" font-family="Helvetica,sans-Serif" font-size="14.00">samples = 2</text>
<text text-anchor="middle" x="425.864" y="-25" font-family="Helvetica,sans-Serif" font-size="14.00">value = [0, 2, 0]</text>
<text text-anchor="middle" x="425.864" y="-8.2" font-family="Helvetica,sans-Serif" font-size="14.00">class = versicolor</text>
</g>
<!-- 9&#45;&gt;10 -->
<g id="edge10" class="edge"><title>9&#45;&gt;10</title>
<path fill="none" stroke="black" d="M469.758,-94.3237C463.626,-85.3655 457.065,-75.7811 450.934,-66.8252"/>
<polygon fill="black" stroke="black" points="453.753,-64.7471 445.217,-58.4722 447.977,-68.7011 453.753,-64.7471"/>
</g>
<!-- 11 -->
<g id="node12" class="node"><title>11</title>
<path fill="#8139e5" stroke="black" d="M608.537,-58.6014C608.537,-58.6014 517.19,-58.6014 517.19,-58.6014 511.19,-58.6014 505.19,-52.6014 505.19,-46.6014 505.19,-46.6014 505.19,-11.7986 505.19,-11.7986 505.19,-5.79862 511.19,0.201379 517.19,0.201379 517.19,0.201379 608.537,0.201379 608.537,0.201379 614.537,0.201379 620.537,-5.79862 620.537,-11.7986 620.537,-11.7986 620.537,-46.6014 620.537,-46.6014 620.537,-52.6014 614.537,-58.6014 608.537,-58.6014"/>
<text text-anchor="middle" x="562.864" y="-41.8" font-family="Helvetica,sans-Serif" font-size="14.00">samples = 1</text>
<text text-anchor="middle" x="562.864" y="-25" font-family="Helvetica,sans-Serif" font-size="14.00">value = [0, 0, 1]</text>
<text text-anchor="middle" x="562.864" y="-8.2" font-family="Helvetica,sans-Serif" font-size="14.00">class = virginica</text>
</g>
<!-- 9&#45;&gt;11 -->
<g id="edge11" class="edge"><title>9&#45;&gt;11</title>
<path fill="none" stroke="black" d="M519.606,-94.3237C525.649,-85.3655 532.114,-75.7811 538.156,-66.8252"/>
<polygon fill="black" stroke="black" points="541.1,-68.7196 543.791,-58.4722 535.297,-64.8048 541.1,-68.7196"/>
</g>
<!-- 13 -->
<g id="node14" class="node"><title>13</title>
<path fill="#8139e5" fill-opacity="0.498039" stroke="black" d="M737.078,-280.9C737.078,-280.9 586.65,-280.9 586.65,-280.9 580.65,-280.9 574.65,-274.9 574.65,-268.9 574.65,-268.9 574.65,-217.5 574.65,-217.5 574.65,-211.5 580.65,-205.5 586.65,-205.5 586.65,-205.5 737.078,-205.5 737.078,-205.5 743.078,-205.5 749.078,-211.5 749.078,-217.5 749.078,-217.5 749.078,-268.9 749.078,-268.9 749.078,-274.9 743.078,-280.9 737.078,-280.9"/>
<text text-anchor="middle" x="661.864" y="-264.2" font-family="Helvetica,sans-Serif" font-size="14.00">sepal length (cm) &lt;= 5.95</text>
<text text-anchor="middle" x="661.864" y="-247.4" font-family="Helvetica,sans-Serif" font-size="14.00">samples = 3</text>
<text text-anchor="middle" x="661.864" y="-230.6" font-family="Helvetica,sans-Serif" font-size="14.00">value = [0, 1, 2]</text>
<text text-anchor="middle" x="661.864" y="-213.8" font-family="Helvetica,sans-Serif" font-size="14.00">class = virginica</text>
</g>
<!-- 12&#45;&gt;13 -->
<g id="edge13" class="edge"><title>12&#45;&gt;13</title>
<path fill="none" stroke="black" d="M661.864,-316.734C661.864,-308.541 661.864,-299.741 661.864,-291.196"/>
<polygon fill="black" stroke="black" points="665.364,-290.955 661.864,-280.955 658.364,-290.955 665.364,-290.955"/>
</g>
<!-- 16 -->
<g id="node17" class="node"><title>16</title>
<path fill="#8139e5" stroke="black" d="M874.748,-272.601C874.748,-272.601 778.979,-272.601 778.979,-272.601 772.979,-272.601 766.979,-266.601 766.979,-260.601 766.979,-260.601 766.979,-225.799 766.979,-225.799 766.979,-219.799 772.979,-213.799 778.979,-213.799 778.979,-213.799 874.748,-213.799 874.748,-213.799 880.748,-213.799 886.748,-219.799 886.748,-225.799 886.748,-225.799 886.748,-260.601 886.748,-260.601 886.748,-266.601 880.748,-272.601 874.748,-272.601"/>
<text text-anchor="middle" x="826.864" y="-255.8" font-family="Helvetica,sans-Serif" font-size="14.00">samples = 42</text>
<text text-anchor="middle" x="826.864" y="-239" font-family="Helvetica,sans-Serif" font-size="14.00">value = [0, 0, 42]</text>
<text text-anchor="middle" x="826.864" y="-222.2" font-family="Helvetica,sans-Serif" font-size="14.00">class = virginica</text>
</g>
<!-- 12&#45;&gt;16 -->
<g id="edge16" class="edge"><title>12&#45;&gt;16</title>
<path fill="none" stroke="black" d="M717.265,-316.734C736.097,-304.271 757.047,-290.406 775.545,-278.163"/>
<polygon fill="black" stroke="black" points="777.724,-280.919 784.131,-272.481 773.861,-275.081 777.724,-280.919"/>
</g>
<!-- 14 -->
<g id="node15" class="node"><title>14</title>
<path fill="#39e581" stroke="black" d="M711.591,-161.401C711.591,-161.401 612.136,-161.401 612.136,-161.401 606.136,-161.401 600.136,-155.401 600.136,-149.401 600.136,-149.401 600.136,-114.599 600.136,-114.599 600.136,-108.599 606.136,-102.599 612.136,-102.599 612.136,-102.599 711.591,-102.599 711.591,-102.599 717.591,-102.599 723.591,-108.599 723.591,-114.599 723.591,-114.599 723.591,-149.401 723.591,-149.401 723.591,-155.401 717.591,-161.401 711.591,-161.401"/>
<text text-anchor="middle" x="661.864" y="-144.6" font-family="Helvetica,sans-Serif" font-size="14.00">samples = 1</text>
<text text-anchor="middle" x="661.864" y="-127.8" font-family="Helvetica,sans-Serif" font-size="14.00">value = [0, 1, 0]</text>
<text text-anchor="middle" x="661.864" y="-111" font-family="Helvetica,sans-Serif" font-size="14.00">class = versicolor</text>
</g>
<!-- 13&#45;&gt;14 -->
<g id="edge14" class="edge"><title>13&#45;&gt;14</title>
<path fill="none" stroke="black" d="M661.864,-205.534C661.864,-194.641 661.864,-182.676 661.864,-171.66"/>
<polygon fill="black" stroke="black" points="665.364,-171.455 661.864,-161.455 658.364,-171.455 665.364,-171.455"/>
</g>
<!-- 15 -->
<g id="node16" class="node"><title>15</title>
<path fill="#8139e5" stroke="black" d="M844.537,-161.401C844.537,-161.401 753.19,-161.401 753.19,-161.401 747.19,-161.401 741.19,-155.401 741.19,-149.401 741.19,-149.401 741.19,-114.599 741.19,-114.599 741.19,-108.599 747.19,-102.599 753.19,-102.599 753.19,-102.599 844.537,-102.599 844.537,-102.599 850.537,-102.599 856.537,-108.599 856.537,-114.599 856.537,-114.599 856.537,-149.401 856.537,-149.401 856.537,-155.401 850.537,-161.401 844.537,-161.401"/>
<text text-anchor="middle" x="798.864" y="-144.6" font-family="Helvetica,sans-Serif" font-size="14.00">samples = 2</text>
<text text-anchor="middle" x="798.864" y="-127.8" font-family="Helvetica,sans-Serif" font-size="14.00">value = [0, 0, 2]</text>
<text text-anchor="middle" x="798.864" y="-111" font-family="Helvetica,sans-Serif" font-size="14.00">class = virginica</text>
</g>
<!-- 13&#45;&gt;15 -->
<g id="edge15" class="edge"><title>13&#45;&gt;15</title>
<path fill="none" stroke="black" d="M707.864,-205.534C723.08,-193.405 739.963,-179.948 755.014,-167.952"/>
<polygon fill="black" stroke="black" points="757.526,-170.425 763.165,-161.455 753.163,-164.951 757.526,-170.425"/>
</g>
</g>
</svg>
